<svg class="bg-stripes" style="width: 100%;position: absolute;top: 0px;left: 0px;z-index: 0;"
            data-name="wave-top" xmlns="http://www.w3.org/2000/svg" xmlns:xlink="http://www.w3.org/1999/xlink"
            viewBox="0 0 799.62 82.04">
            <defs>
              <linearGradient id="wave-top-gradient" x1="0.91" y1="42.07" x2="800.53" y2="42.07"
                gradientUnits="userSpaceOnUse">
                <stop offset="0" stop-color="#9c6af1"></stop>
                <stop offset="1" stop-color="#e171e7"></stop>
              </linearGradient>
            </defs>
            <title>wave-top</title>
            <path
              d="M.91,59v-58c2.34,0,4.67.12,7,.12H800.53V58.94a28.36,28.36,0,0,1-3.3,1.1c-22.37,4.33-44.63,9.27-67.12,12.78C694.55,78.39,658.7,81,622.72,82.37a985.59,985.59,0,0,1-159.56-6.83C418.42,70,373.83,63.17,329.2,56.7,275.15,48.87,221.13,41,166.41,39.42c-29-.82-58-.45-86.7,4.26C53.32,48,27.17,53.86.91,59Z"
              transform="translate(-0.91 -1.05)" style="fill:url(#wave-top-gradient)"></path>
          </svg>